<svg width="256" height="256" viewBox="0 0 256 256" fill="none" xmlns="http://www.w3.org/2000/svg">
<path d="M0 48C0 21.4903 21.4903 0 48 0H208C234.51 0 256 21.4903 256 48V208C256 234.51 234.51 256 208 256H48C21.4903 256 0 234.51 0 208V48Z" fill="#6BC4FF"/>
<path fill-rule="evenodd" clip-rule="evenodd" d="M128 224C181.019 224 224 181.019 224 128C224 74.9807 181.019 32 128 32C74.9807 32 32 74.9807 32 128C32 181.019 74.9807 224 128 224ZM128 160C145.673 160 160 145.673 160 128C160 110.327 145.673 96 128 96C110.327 96 96 110.327 96 128C96 145.673 110.327 160 128 160Z" fill="#111112"/>
</svg>
